# Blender 4.5.2 LTS
# www.blender.org
o 실린더
v 0.083205 0.000990 0.000000
v 0.083205 1.610707 -0.000000
v 0.081606 0.000990 0.016233
v 0.081606 1.610707 0.016232
v 0.076871 0.000990 0.031841
v 0.076871 1.610707 0.031841
v 0.069182 0.000990 0.046226
v 0.069182 1.610707 0.046226
v 0.058835 0.000990 0.058835
v 0.058835 1.610707 0.058835
v 0.046226 0.000990 0.069182
v 0.046226 1.610707 0.069182
v 0.031841 0.000990 0.076871
v 0.031841 1.610707 0.076871
v 0.016232 0.000990 0.081606
v 0.016232 1.610707 0.081606
v 0.000000 0.000990 0.083205
v 0.000000 1.610707 0.083205
v -0.016232 0.000990 0.081606
v -0.016232 1.610707 0.081606
v -0.031841 0.000990 0.076871
v -0.031841 1.610707 0.076871
v -0.046226 0.000990 0.069182
v -0.046226 1.610707 0.069182
v -0.058835 0.000990 0.058835
v -0.058835 1.610707 0.058835
v -0.069182 0.000990 0.046226
v -0.069182 1.610707 0.046226
v -0.076871 0.000990 0.031841
v -0.076871 1.610707 0.031841
v -0.081606 0.000990 0.016233
v -0.081606 1.610707 0.016232
v -0.083205 0.000990 0.000000
v -0.083205 1.610707 -0.000000
v -0.081606 0.000990 -0.016232
v -0.081606 1.610707 -0.016233
v -0.076871 0.000990 -0.031841
v -0.076871 1.610707 -0.031841
v -0.069182 0.000990 -0.046226
v -0.069182 1.610707 -0.046226
v -0.058835 0.000990 -0.058835
v -0.058835 1.610707 -0.058835
v -0.046226 0.000990 -0.069182
v -0.046226 1.610707 -0.069182
v -0.031841 0.000990 -0.076871
v -0.031841 1.610707 -0.076871
v -0.016232 0.000990 -0.081606
v -0.016232 1.610707 -0.081606
v 0.000000 0.000990 -0.083205
v 0.000000 1.610707 -0.083205
v 0.016232 0.000990 -0.081606
v 0.016232 1.610707 -0.081606
v 0.031841 0.000990 -0.076871
v 0.031841 1.610707 -0.076871
v 0.046226 0.000990 -0.069182
v 0.046226 1.610707 -0.069182
v 0.058835 0.000990 -0.058835
v 0.058835 1.610707 -0.058835
v 0.069182 0.000990 -0.046226
v 0.069182 1.610707 -0.046226
v 0.076871 0.000990 -0.031841
v 0.076871 1.610707 -0.031841
v 0.081606 0.000990 -0.016232
v 0.081606 1.610707 -0.016233
vn 0.9953 -0.0969 -0.0000
vn 0.9953 0.0969 -0.0000
vn 0.9762 -0.0969 0.1942
vn 0.9762 0.0969 0.1942
vn 0.9195 -0.0969 0.3809
vn 0.9195 0.0969 0.3809
vn 0.8276 -0.0969 0.5530
vn 0.8276 0.0969 0.5530
vn 0.7038 -0.0969 0.7038
vn 0.7038 0.0969 0.7038
vn 0.5530 -0.0969 0.8276
vn 0.5530 0.0969 0.8276
vn 0.3809 -0.0969 0.9195
vn 0.3809 0.0969 0.9195
vn 0.1942 -0.0969 0.9762
vn 0.1942 0.0969 0.9762
vn -0.0000 -0.0969 0.9953
vn -0.0000 0.0969 0.9953
vn -0.1942 -0.0969 0.9762
vn -0.1942 0.0969 0.9762
vn -0.3809 -0.0969 0.9195
vn -0.3809 0.0969 0.9195
vn -0.5530 -0.0969 0.8276
vn -0.5530 0.0969 0.8276
vn -0.7038 -0.0969 0.7038
vn -0.7038 0.0969 0.7038
vn -0.8276 -0.0969 0.5530
vn -0.8276 0.0969 0.5530
vn -0.9195 -0.0969 0.3809
vn -0.9195 0.0969 0.3809
vn -0.9762 -0.0969 0.1942
vn -0.9762 0.0969 0.1942
vn -0.9953 -0.0969 -0.0000
vn -0.9953 0.0969 -0.0000
vn -0.9762 -0.0969 -0.1942
vn -0.9762 0.0969 -0.1942
vn -0.9195 -0.0969 -0.3809
vn -0.9195 0.0969 -0.3809
vn -0.8276 -0.0969 -0.5530
vn -0.8276 0.0969 -0.5530
vn -0.7038 -0.0969 -0.7038
vn -0.7038 0.0969 -0.7038
vn -0.5530 -0.0969 -0.8276
vn -0.5530 0.0969 -0.8276
vn -0.3809 -0.0969 -0.9195
vn -0.3809 0.0969 -0.9195
vn -0.1942 -0.0969 -0.9762
vn -0.1942 0.0969 -0.9762
vn -0.0000 -0.0969 -0.9953
vn -0.0000 0.0969 -0.9953
vn 0.1942 -0.0969 -0.9762
vn 0.1942 0.0969 -0.9762
vn 0.3809 -0.0969 -0.9195
vn 0.3809 0.0969 -0.9195
vn 0.5530 -0.0969 -0.8276
vn 0.5530 0.0969 -0.8276
vn 0.7038 -0.0969 -0.7038
vn 0.7038 0.0969 -0.7038
vn 0.8276 -0.0969 -0.5530
vn 0.8276 0.0969 -0.5530
vn 0.9195 -0.0969 -0.3809
vn 0.9195 0.0969 -0.3809
vn 0.9762 -0.0969 -0.1942
vn 0.9762 0.0969 -0.1942
vt 1.000000 1.000000
vt 0.968750 0.500000
vt 1.000000 0.500000
vt 0.968750 1.000000
vt 0.937500 0.500000
vt 0.937500 1.000000
vt 0.906250 0.500000
vt 0.906250 1.000000
vt 0.875000 0.500000
vt 0.875000 1.000000
vt 0.843750 0.500000
vt 0.843750 1.000000
vt 0.812500 0.500000
vt 0.812500 1.000000
vt 0.781250 0.500000
vt 0.781250 1.000000
vt 0.750000 0.500000
vt 0.750000 1.000000
vt 0.718750 0.500000
vt 0.718750 1.000000
vt 0.687500 0.500000
vt 0.687500 1.000000
vt 0.656250 0.500000
vt 0.656250 1.000000
vt 0.625000 0.500000
vt 0.625000 1.000000
vt 0.593750 0.500000
vt 0.593750 1.000000
vt 0.562500 0.500000
vt 0.562500 1.000000
vt 0.531250 0.500000
vt 0.531250 1.000000
vt 0.500000 0.500000
vt 0.500000 1.000000
vt 0.468750 0.500000
vt 0.468750 1.000000
vt 0.437500 0.500000
vt 0.437500 1.000000
vt 0.406250 0.500000
vt 0.406250 1.000000
vt 0.375000 0.500000
vt 0.375000 1.000000
vt 0.343750 0.500000
vt 0.343750 1.000000
vt 0.312500 0.500000
vt 0.312500 1.000000
vt 0.281250 0.500000
vt 0.281250 1.000000
vt 0.250000 0.500000
vt 0.250000 1.000000
vt 0.218750 0.500000
vt 0.218750 1.000000
vt 0.187500 0.500000
vt 0.187500 1.000000
vt 0.156250 0.500000
vt 0.156250 1.000000
vt 0.125000 0.500000
vt 0.125000 1.000000
vt 0.093750 0.500000
vt 0.093750 1.000000
vt 0.062500 0.500000
vt 0.158156 0.028269
vt 0.471731 0.158156
vt 0.341844 0.471731
vt 0.062500 1.000000
vt 0.031250 0.500000
vt 0.031250 1.000000
vt 0.000000 0.500000
vt 0.796822 0.014612
vt 0.514612 0.203178
vt 0.703178 0.485388
vt 0.296822 0.485388
vt 0.250000 0.490000
vt 0.203178 0.485388
vt 0.158156 0.471731
vt 0.116663 0.449553
vt 0.080294 0.419706
vt 0.050447 0.383337
vt 0.028269 0.341844
vt 0.014612 0.296822
vt 0.010000 0.250000
vt 0.014612 0.203178
vt 0.028269 0.158156
vt 0.050447 0.116663
vt 0.080294 0.080294
vt 0.116663 0.050447
vt 0.203178 0.014612
vt 0.250000 0.010000
vt 0.296822 0.014612
vt 0.341844 0.028269
vt 0.383337 0.050447
vt 0.419706 0.080294
vt 0.449553 0.116663
vt 0.485388 0.203178
vt 0.490000 0.250000
vt 0.485388 0.296822
vt 0.471731 0.341844
vt 0.449553 0.383337
vt 0.419706 0.419706
vt 0.383337 0.449553
vt 0.000000 1.000000
vt 0.750000 0.490000
vt 0.796822 0.485388
vt 0.841844 0.471731
vt 0.883337 0.449553
vt 0.919706 0.419706
vt 0.949553 0.383337
vt 0.971731 0.341844
vt 0.985388 0.296822
vt 0.990000 0.250000
vt 0.985388 0.203178
vt 0.971731 0.158156
vt 0.949553 0.116663
vt 0.919706 0.080294
vt 0.883337 0.050447
vt 0.841844 0.028269
vt 0.750000 0.010000
vt 0.703178 0.014612
vt 0.658156 0.028269
vt 0.616663 0.050447
vt 0.580294 0.080294
vt 0.550447 0.116663
vt 0.528269 0.158156
vt 0.510000 0.250000
vt 0.514612 0.296822
vt 0.528269 0.341844
vt 0.550447 0.383337
vt 0.580294 0.419706
vt 0.616663 0.449553
vt 0.658156 0.471731
s 1
f 2/1/2 3/2/3 1/3/1
f 4/4/4 5/5/5 3/2/3
f 6/6/6 7/7/7 5/5/5
f 8/8/8 9/9/9 7/7/7
f 10/10/10 11/11/11 9/9/9
f 12/12/12 13/13/13 11/11/11
f 14/14/14 15/15/15 13/13/13
f 16/16/16 17/17/17 15/15/15
f 18/18/18 19/19/19 17/17/17
f 20/20/20 21/21/21 19/19/19
f 22/22/22 23/23/23 21/21/21
f 24/24/24 25/25/25 23/23/23
f 26/26/26 27/27/27 25/25/25
f 28/28/28 29/29/29 27/27/27
f 30/30/30 31/31/31 29/29/29
f 32/32/32 33/33/33 31/31/31
f 34/34/34 35/35/35 33/33/33
f 36/36/36 37/37/37 35/35/35
f 38/38/38 39/39/39 37/37/37
f 40/40/40 41/41/41 39/39/39
f 42/42/42 43/43/43 41/41/41
f 44/44/44 45/45/45 43/43/43
f 46/46/46 47/47/47 45/45/45
f 48/48/48 49/49/49 47/47/47
f 50/50/50 51/51/51 49/49/49
f 52/52/52 53/53/53 51/51/51
f 54/54/54 55/55/55 53/53/53
f 56/56/56 57/57/57 55/55/55
f 58/58/58 59/59/59 57/57/57
f 60/60/60 61/61/61 59/59/59
f 38/62/38 22/63/22 6/64/6
f 62/65/62 63/66/63 61/61/61
f 64/67/64 1/68/1 63/66/63
f 31/69/31 47/70/47 63/71/63
f 2/1/2 4/4/4 3/2/3
f 4/4/4 6/6/6 5/5/5
f 6/6/6 8/8/8 7/7/7
f 8/8/8 10/10/10 9/9/9
f 10/10/10 12/12/12 11/11/11
f 12/12/12 14/14/14 13/13/13
f 14/14/14 16/16/16 15/15/15
f 16/16/16 18/18/18 17/17/17
f 18/18/18 20/20/20 19/19/19
f 20/20/20 22/22/22 21/21/21
f 22/22/22 24/24/24 23/23/23
f 24/24/24 26/26/26 25/25/25
f 26/26/26 28/28/28 27/27/27
f 28/28/28 30/30/30 29/29/29
f 30/30/30 32/32/32 31/31/31
f 32/32/32 34/34/34 33/33/33
f 34/34/34 36/36/36 35/35/35
f 36/36/36 38/38/38 37/37/37
f 38/38/38 40/40/40 39/39/39
f 40/40/40 42/42/42 41/41/41
f 42/42/42 44/44/44 43/43/43
f 44/44/44 46/46/46 45/45/45
f 46/46/46 48/48/48 47/47/47
f 48/48/48 50/50/50 49/49/49
f 50/50/50 52/52/52 51/51/51
f 52/52/52 54/54/54 53/53/53
f 54/54/54 56/56/56 55/55/55
f 56/56/56 58/58/58 57/57/57
f 58/58/58 60/60/60 59/59/59
f 60/60/60 62/65/62 61/61/61
f 6/64/6 4/72/4 2/73/2
f 2/73/2 64/74/64 62/75/62
f 62/75/62 60/76/60 58/77/58
f 58/77/58 56/78/56 54/79/54
f 54/79/54 52/80/52 50/81/50
f 50/81/50 48/82/48 46/83/46
f 46/83/46 44/84/44 42/85/42
f 42/85/42 40/86/40 38/62/38
f 38/62/38 36/87/36 34/88/34
f 34/88/34 32/89/32 30/90/30
f 30/90/30 28/91/28 26/92/26
f 26/92/26 24/93/24 22/63/22
f 22/63/22 20/94/20 18/95/18
f 18/95/18 16/96/16 14/97/14
f 14/97/14 12/98/12 10/99/10
f 10/99/10 8/100/8 6/64/6
f 6/64/6 2/73/2 62/75/62
f 62/75/62 58/77/58 54/79/54
f 54/79/54 50/81/50 46/83/46
f 46/83/46 42/85/42 38/62/38
f 38/62/38 34/88/34 30/90/30
f 30/90/30 26/92/26 22/63/22
f 22/63/22 18/95/18 14/97/14
f 14/97/14 10/99/10 6/64/6
f 6/64/6 62/75/62 54/79/54
f 54/79/54 46/83/46 38/62/38
f 38/62/38 30/90/30 22/63/22
f 22/63/22 14/97/14 6/64/6
f 6/64/6 54/79/54 38/62/38
f 62/65/62 64/67/64 63/66/63
f 64/67/64 2/101/2 1/68/1
f 63/71/63 1/102/1 3/103/3
f 3/103/3 5/104/5 7/105/7
f 7/105/7 9/106/9 11/107/11
f 11/107/11 13/108/13 15/109/15
f 15/109/15 17/110/17 19/111/19
f 19/111/19 21/112/21 23/113/23
f 23/113/23 25/114/25 27/115/27
f 27/115/27 29/116/29 31/69/31
f 31/69/31 33/117/33 35/118/35
f 35/118/35 37/119/37 39/120/39
f 39/120/39 41/121/41 43/122/43
f 43/122/43 45/123/45 47/70/47
f 47/70/47 49/124/49 51/125/51
f 51/125/51 53/126/53 55/127/55
f 55/127/55 57/128/57 59/129/59
f 59/129/59 61/130/61 63/71/63
f 63/71/63 3/103/3 7/105/7
f 7/105/7 11/107/11 15/109/15
f 15/109/15 19/111/19 23/113/23
f 23/113/23 27/115/27 31/69/31
f 31/69/31 35/118/35 39/120/39
f 39/120/39 43/122/43 47/70/47
f 47/70/47 51/125/51 55/127/55
f 55/127/55 59/129/59 63/71/63
f 63/71/63 7/105/7 15/109/15
f 15/109/15 23/113/23 31/69/31
f 31/69/31 39/120/39 47/70/47
f 47/70/47 55/127/55 63/71/63
f 63/71/63 15/109/15 31/69/31
o 원뿔
v 0.215158 1.418406 0.000000
v 0.211024 1.418406 0.041975
v 0.198780 1.418406 0.082337
v 0.178898 1.418406 0.119536
v 0.152140 1.418406 0.152140
v 0.119536 1.418406 0.178898
v 0.082337 1.418406 0.198780
v 0.041975 1.418406 0.211024
v 0.000000 1.418406 0.215158
v -0.041975 1.418406 0.211024
v -0.082337 1.418406 0.198780
v -0.119536 1.418406 0.178898
v -0.152140 1.418406 0.152140
v -0.178898 1.418406 0.119536
v -0.198780 1.418406 0.082337
v -0.211024 1.418406 0.041975
v -0.215158 1.418406 0.000000
v -0.211024 1.418406 -0.041975
v -0.198780 1.418406 -0.082337
v -0.178898 1.418406 -0.119535
v -0.152140 1.418406 -0.152140
v -0.119536 1.418406 -0.178898
v -0.082337 1.418406 -0.198780
v -0.041975 1.418406 -0.211024
v 0.000000 1.418406 -0.215158
v 0.041975 1.418406 -0.211024
v 0.082337 1.418406 -0.198780
v 0.119536 1.418406 -0.178898
v 0.152140 1.418406 -0.152140
v 0.178898 1.418406 -0.119535
v 0.198780 1.418406 -0.082337
v 0.211024 1.418406 -0.041975
v 0.000000 1.848722 -0.000000
vn 0.8641 -0.5033 -0.0000
vn 0.8475 -0.5033 0.1686
vn 0.7983 -0.5033 0.3307
vn 0.7185 -0.5032 0.4801
vn 0.6110 -0.5033 0.6110
vn 0.4801 -0.5033 0.7185
vn 0.3307 -0.5033 0.7983
vn 0.1686 -0.5032 0.8476
vn -0.0000 -0.5033 0.8641
vn -0.1686 -0.5033 0.8475
vn -0.3307 -0.5033 0.7983
vn -0.4801 -0.5032 0.7185
vn -0.6110 -0.5033 0.6110
vn -0.7185 -0.5033 0.4801
vn -0.7983 -0.5033 0.3307
vn -0.8475 -0.5032 0.1686
vn -0.8641 -0.5033 -0.0000
vn -0.8475 -0.5033 -0.1686
vn -0.7983 -0.5033 -0.3307
vn -0.7185 -0.5032 -0.4801
vn -0.6110 -0.5033 -0.6110
vn -0.4801 -0.5033 -0.7185
vn -0.3307 -0.5033 -0.7983
vn -0.1686 -0.5032 -0.8476
vn -0.0000 -0.5033 -0.8641
vn 0.1686 -0.5033 -0.8475
vn 0.3307 -0.5033 -0.7983
vn 0.4801 -0.5032 -0.7185
vn 0.6110 -0.5033 -0.6110
vn 0.7185 -0.5033 -0.4801
vn 0.7983 -0.5033 -0.3307
vn 0.8475 -0.5032 -0.1686
vn -0.0000 1.0000 -0.0000
vt 0.250000 0.490000
vt 0.250000 0.250000
vt 0.296822 0.485388
vt 0.341844 0.471731
vt 0.383337 0.449553
vt 0.419706 0.419706
vt 0.449553 0.383337
vt 0.471731 0.341844
vt 0.485388 0.296822
vt 0.490000 0.250000
vt 0.485388 0.203178
vt 0.471731 0.158156
vt 0.449553 0.116663
vt 0.419706 0.080294
vt 0.383337 0.050447
vt 0.341844 0.028269
vt 0.296822 0.014612
vt 0.250000 0.010000
vt 0.203178 0.014612
vt 0.158156 0.028269
vt 0.116663 0.050447
vt 0.080294 0.080294
vt 0.050447 0.116663
vt 0.028269 0.158156
vt 0.014612 0.203178
vt 0.010000 0.250000
vt 0.014612 0.296822
vt 0.028269 0.341844
vt 0.050447 0.383337
vt 0.080294 0.419706
vt 0.116663 0.449553
vt 0.158156 0.471731
vt 0.796822 0.014612
vt 0.514612 0.203178
vt 0.703178 0.485388
vt 0.203178 0.485388
vt 0.750000 0.490000
vt 0.796822 0.485388
vt 0.841844 0.471731
vt 0.883337 0.449553
vt 0.919706 0.419706
vt 0.949553 0.383337
vt 0.971731 0.341844
vt 0.985388 0.296822
vt 0.990000 0.250000
vt 0.985388 0.203178
vt 0.971731 0.158156
vt 0.949553 0.116663
vt 0.919706 0.080294
vt 0.883337 0.050447
vt 0.841844 0.028269
vt 0.750000 0.010000
vt 0.703178 0.014612
vt 0.658156 0.028269
vt 0.616663 0.050447
vt 0.580294 0.080294
vt 0.550447 0.116663
vt 0.528269 0.158156
vt 0.510000 0.250000
vt 0.514612 0.296822
vt 0.528269 0.341844
vt 0.550447 0.383337
vt 0.580294 0.419706
vt 0.616663 0.449553
vt 0.658156 0.471731
s 1
f 65/131/65 97/132/97 66/133/66
f 66/133/66 97/132/97 67/134/67
f 67/134/67 97/132/97 68/135/68
f 68/135/68 97/132/97 69/136/69
f 69/136/69 97/132/97 70/137/70
f 70/137/70 97/132/97 71/138/71
f 71/138/71 97/132/97 72/139/72
f 72/139/72 97/132/97 73/140/73
f 73/140/73 97/132/97 74/141/74
f 74/141/74 97/132/97 75/142/75
f 75/142/75 97/132/97 76/143/76
f 76/143/76 97/132/97 77/144/77
f 77/144/77 97/132/97 78/145/78
f 78/145/78 97/132/97 79/146/79
f 79/146/79 97/132/97 80/147/80
f 80/147/80 97/132/97 81/148/81
f 81/148/81 97/132/97 82/149/82
f 82/149/82 97/132/97 83/150/83
f 83/150/83 97/132/97 84/151/84
f 84/151/84 97/132/97 85/152/85
f 85/152/85 97/132/97 86/153/86
f 86/153/86 97/132/97 87/154/87
f 87/154/87 97/132/97 88/155/88
f 88/155/88 97/132/97 89/156/89
f 89/156/89 97/132/97 90/157/90
f 90/157/90 97/132/97 91/158/91
f 91/158/91 97/132/97 92/159/92
f 92/159/92 97/132/97 93/160/93
f 93/160/93 97/132/97 94/161/94
f 94/161/94 97/132/97 95/162/95
f 80/163/80 88/164/88 96/165/96
f 95/162/95 97/132/97 96/166/96
f 96/166/96 97/132/97 65/131/65
f 96/165/96 65/167/65 66/168/66
f 66/168/66 67/169/67 68/170/68
f 68/170/68 69/171/69 70/172/70
f 70/172/70 71/173/71 72/174/72
f 72/174/72 73/175/73 74/176/74
f 74/176/74 75/177/75 76/178/76
f 76/178/76 77/179/77 78/180/78
f 78/180/78 79/181/79 80/163/80
f 80/163/80 81/182/81 82/183/82
f 82/183/82 83/184/83 84/185/84
f 84/185/84 85/186/85 86/187/86
f 86/187/86 87/188/87 88/164/88
f 88/164/88 89/189/89 90/190/90
f 90/190/90 91/191/91 92/192/92
f 92/192/92 93/193/93 94/194/94
f 94/194/94 95/195/95 96/165/96
f 96/165/96 66/168/66 68/170/68
f 68/170/68 70/172/70 72/174/72
f 72/174/72 74/176/74 76/178/76
f 76/178/76 78/180/78 80/163/80
f 80/163/80 82/183/82 84/185/84
f 84/185/84 86/187/86 88/164/88
f 88/164/88 90/190/90 92/192/92
f 92/192/92 94/194/94 96/165/96
f 96/165/96 68/170/68 72/174/72
f 72/174/72 76/178/76 80/163/80
f 80/163/80 84/185/84 88/164/88
f 88/164/88 92/192/92 96/165/96
f 96/165/96 72/174/72 80/163/80
